<?xml version="1.0" encoding="UTF-8" standalone="no"?>
<svg width="118px" height="33px" viewBox="0 0 118 33" version="1.1" xmlns="http://www.w3.org/2000/svg" xmlns:xlink="http://www.w3.org/1999/xlink" xmlns:sketch="http://www.bohemiancoding.com/sketch/ns">
    <!-- Generator: Sketch 3.3.3 (12072) - http://www.bohemiancoding.com/sketch -->
    <title>RGB</title>
    <desc>Created with Sketch.</desc>
    <defs></defs>
    <g id="Elements" stroke="none" stroke-width="1" fill="none" fill-rule="evenodd" sketch:type="MSPage">
        <g id="iPhone-6-Copy-2" sketch:type="MSArtboardGroup" transform="translate(-129.000000, -191.000000)" fill="#3F3F3F">
            <g id="RGB-+-Group" sketch:type="MSLayerGroup" transform="translate(98.000000, 188.000000)">
                <path d="M31.7380003,35 L34.0260003,35 L34.0260003,22.24 L44.1020003,22.24 L53.9140003,35 L56.8180003,35 L46.6540003,21.844 C51.8460003,21.14 55.6740003,18.192 55.6740003,13.044 L55.6740003,12.956 C55.6740003,10.756 54.7940003,8.688 53.3420003,7.236 C51.4940003,5.388 48.4580003,4.2 44.6740003,4.2 L31.7380003,4.2 L31.7380003,35 Z M34.0260003,20.172 L34.0260003,6.312 L44.5420003,6.312 C50.1300003,6.312 53.3860003,8.908 53.3860003,13.044 L53.3860003,13.132 C53.3860003,17.576 49.5580003,20.172 44.4100003,20.172 L34.0260003,20.172 Z M90.8740001,35.528 C95.8900001,35.528 100.202,33.372 102.974,30.908 L102.974,19.028 L90.4780001,19.028 L90.4780001,21.14 L100.774,21.14 L100.774,29.984 C98.5300001,31.876 94.8780001,33.504 90.9620001,33.504 C82.7340001,33.504 77.7620001,27.564 77.7620001,19.6 L77.7620001,19.512 C77.7620001,12.076 82.9980001,5.74 90.4780001,5.74 C95.1420001,5.74 97.9580001,7.324 100.378,9.436 L101.874,7.72 C98.7940001,5.168 95.6260001,3.672 90.6100001,3.672 C81.4140001,3.672 75.3860001,11.284 75.3860001,19.6 L75.3860001,19.688 C75.3860001,28.356 81.1500001,35.528 90.8740001,35.528 L90.8740001,35.528 Z M124.446,35 L137.822,35 C144.466,35 148.866,31.744 148.866,26.596 L148.866,26.508 C148.866,22.24 145.61,20.128 141.914,19.16 C144.422,18.148 147.15,16.036 147.15,11.856 L147.15,11.768 C147.15,9.832 146.446,8.204 145.17,6.928 C143.454,5.212 140.638,4.2 137.162,4.2 L124.446,4.2 L124.446,35 Z M126.734,18.412 L126.734,6.312 L137.118,6.312 C142.046,6.312 144.818,8.6 144.818,11.988 L144.818,12.076 C144.818,16.168 141.518,18.412 136.898,18.412 L126.734,18.412 Z M126.734,32.888 L126.734,20.524 L137.162,20.524 C143.234,20.524 146.534,22.724 146.534,26.508 L146.534,26.596 C146.534,30.468 143.19,32.888 137.91,32.888 L126.734,32.888 Z" id="RGB" sketch:type="MSShapeGroup"></path>
            </g>
        </g>
    </g>
</svg>